{
  "asset": {
    "version": "2.0",
    "generator": "Codex Vitae Avatar Generator"
  },
  "scene": 0,
  "scenes": [
    {
      "nodes": [
        0
      ]
    }
  ],
  "nodes": [
    {
      "name": "CodexAvatarRoot",
      "children": [
        1,
        2,
        3,
        4,
        5,
        6,
        7,
        8,
        9,
        10,
        11,
        12,
        13,
        14,
        15,
        16,
        17,
        18,
        19,
        20,
        21,
        22,
        23,
        24,
        25,
        26,
        27,
        28,
        29,
        30,
        31,
        32,
        33,
        34,
        35
      ]
    },
    {
      "name": "GroundBase",
      "mesh": 0,
      "translation": [
        0.0,
        -1.6,
        0.0
      ],
      "scale": [
        1.6,
        0.05,
        1.6
      ]
    },
    {
      "name": "GroundGlow",
      "mesh": 1,
      "translation": [
        0.0,
        -1.58,
        0.0
      ],
      "scale": [
        1.2,
        0.02,
        1.2
      ]
    },
    {
      "name": "Cape",
      "mesh": 17,
      "translation": [
        0.0,
        1.08,
        -0.52
      ],
      "rotation": [
        -0.06971397998507724,
        0.034814483282576254,
        -0.0024344658254111967,
        0.9969563611936846
      ],
      "scale": [
        2.1,
        2.2,
        1.0
      ]
    },
    {
      "name": "BootLeft",
      "mesh": 2,
      "translation": [
        -0.34,
        -1.58,
        0.34
      ],
      "scale": [
        0.24,
        0.16,
        0.36
      ]
    },
    {
      "name": "BootRight",
      "mesh": 2,
      "translation": [
        0.34,
        -1.58,
        0.34
      ],
      "scale": [
        0.24,
        0.16,
        0.36
      ]
    },
    {
      "name": "BootGuardLeft",
      "mesh": 3,
      "translation": [
        -0.34,
        -1.34,
        0.06
      ],
      "scale": [
        0.26,
        0.26,
        0.26
      ]
    },
    {
      "name": "BootGuardRight",
      "mesh": 3,
      "translation": [
        0.34,
        -1.34,
        0.06
      ],
      "scale": [
        0.26,
        0.26,
        0.26
      ]
    },
    {
      "name": "LowerLegLeft",
      "mesh": 4,
      "translation": [
        -0.32,
        -0.98,
        0.12
      ],
      "scale": [
        0.2,
        0.82,
        0.24
      ]
    },
    {
      "name": "LowerLegRight",
      "mesh": 4,
      "translation": [
        0.32,
        -0.98,
        0.12
      ],
      "scale": [
        0.2,
        0.82,
        0.24
      ]
    },
    {
      "name": "KneeGuardLeft",
      "mesh": 3,
      "translation": [
        -0.32,
        -0.52,
        0.18
      ],
      "scale": [
        0.24,
        0.2,
        0.24
      ]
    },
    {
      "name": "KneeGuardRight",
      "mesh": 3,
      "translation": [
        0.32,
        -0.52,
        0.18
      ],
      "scale": [
        0.24,
        0.2,
        0.24
      ]
    },
    {
      "name": "UpperLegLeft",
      "mesh": 5,
      "translation": [
        -0.28,
        -0.16,
        0.06
      ],
      "scale": [
        0.26,
        0.94,
        0.3
      ]
    },
    {
      "name": "UpperLegRight",
      "mesh": 5,
      "translation": [
        0.28,
        -0.16,
        0.06
      ],
      "scale": [
        0.26,
        0.94,
        0.3
      ]
    },
    {
      "name": "Pelvis",
      "mesh": 6,
      "translation": [
        0.0,
        0.48,
        0.12
      ],
      "scale": [
        0.78,
        0.5,
        0.62
      ]
    },
    {
      "name": "Belt",
      "mesh": 7,
      "translation": [
        0.0,
        0.88,
        0.08
      ],
      "scale": [
        0.92,
        0.16,
        0.92
      ]
    },
    {
      "name": "LowerTorso",
      "mesh": 8,
      "translation": [
        0.0,
        1.2,
        0.16
      ],
      "scale": [
        0.72,
        0.82,
        0.54
      ]
    },
    {
      "name": "UpperTorso",
      "mesh": 9,
      "translation": [
        0.0,
        1.86,
        0.22
      ],
      "scale": [
        0.78,
        0.68,
        0.56
      ]
    },
    {
      "name": "ChestTrim",
      "mesh": 10,
      "translation": [
        0.0,
        1.74,
        0.24
      ],
      "scale": [
        0.88,
        0.2,
        0.88
      ]
    },
    {
      "name": "Collar",
      "mesh": 11,
      "translation": [
        0.0,
        2.04,
        0.16
      ],
      "scale": [
        0.6,
        0.22,
        0.6
      ]
    },
    {
      "name": "Neck",
      "mesh": 12,
      "translation": [
        0.0,
        2.28,
        0.2
      ],
      "scale": [
        0.24,
        0.28,
        0.24
      ]
    },
    {
      "name": "Head",
      "mesh": 13,
      "translation": [
        0.0,
        2.64,
        0.32
      ],
      "scale": [
        0.54,
        0.64,
        0.52
      ]
    },
    {
      "name": "HairCrown",
      "mesh": 14,
      "translation": [
        0.0,
        2.92,
        0.08
      ],
      "scale": [
        0.6,
        0.42,
        0.6
      ]
    },
    {
      "name": "HairBack",
      "mesh": 15,
      "translation": [
        0.0,
        2.56,
        -0.34
      ],
      "scale": [
        0.62,
        0.7,
        0.36
      ]
    },
    {
      "name": "HairSideLeft",
      "mesh": 16,
      "translation": [
        -0.4,
        2.62,
        0.32
      ],
      "scale": [
        0.28,
        0.36,
        0.26
      ]
    },
    {
      "name": "HairSideRight",
      "mesh": 16,
      "translation": [
        0.4,
        2.62,
        0.32
      ],
      "scale": [
        0.28,
        0.36,
        0.26
      ]
    },
    {
      "name": "ShoulderLeft",
      "mesh": 18,
      "translation": [
        -0.96,
        1.92,
        0.2
      ],
      "scale": [
        0.28,
        0.3,
        0.28
      ]
    },
    {
      "name": "ShoulderRight",
      "mesh": 18,
      "translation": [
        0.96,
        1.92,
        0.2
      ],
      "scale": [
        0.28,
        0.3,
        0.28
      ]
    },
    {
      "name": "UpperArmLeft",
      "mesh": 19,
      "translation": [
        -1.12,
        1.54,
        0.04
      ],
      "rotation": [
        -0.08555444627467285,
        0.016630099714977236,
        -0.19008290954232632,
        0.9778917956532961
      ],
      "scale": [
        0.18,
        0.7,
        0.22
      ]
    },
    {
      "name": "UpperArmRight",
      "mesh": 19,
      "translation": [
        1.12,
        1.54,
        0.04
      ],
      "rotation": [
        -0.08555444627467285,
        -0.016630099714977236,
        0.19008290954232632,
        0.9778917956532961
      ],
      "scale": [
        0.18,
        0.7,
        0.22
      ]
    },
    {
      "name": "ForearmLeft",
      "mesh": 20,
      "translation": [
        -1.24,
        0.96,
        0.06
      ],
      "rotation": [
        -0.10324154442978847,
        0.01635185423275279,
        -0.1555775006727323,
        0.9822776805218211
      ],
      "scale": [
        0.16,
        0.62,
        0.2
      ]
    },
    {
      "name": "ForearmRight",
      "mesh": 20,
      "translation": [
        1.24,
        0.96,
        0.06
      ],
      "rotation": [
        -0.10324154442978847,
        -0.01635185423275279,
        0.1555775006727323,
        0.9822776805218211
      ],
      "scale": [
        0.16,
        0.62,
        0.2
      ]
    },
    {
      "name": "GloveLeft",
      "mesh": 21,
      "translation": [
        -1.2,
        0.6,
        0.18
      ],
      "rotation": [
        -0.052049254398643524,
        0.005470597079718075,
        -0.10438521064158736,
        0.9931589376748559
      ],
      "scale": [
        0.2,
        0.2,
        0.26
      ]
    },
    {
      "name": "GloveRight",
      "mesh": 21,
      "translation": [
        1.2,
        0.6,
        0.18
      ],
      "rotation": [
        -0.052049254398643524,
        -0.005470597079718075,
        0.10438521064158736,
        0.9931589376748559
      ],
      "scale": [
        0.2,
        0.2,
        0.26
      ]
    },
    {
      "name": "HandLeft",
      "mesh": 22,
      "translation": [
        -1.18,
        0.42,
        0.18
      ],
      "rotation": [
        -0.03470831360797007,
        0.003647990759126966,
        -0.10446478735209537,
        0.9939160595006973
      ],
      "scale": [
        0.16,
        0.14,
        0.2
      ]
    },
    {
      "name": "HandRight",
      "mesh": 22,
      "translation": [
        1.18,
        0.42,
        0.18
      ],
      "rotation": [
        -0.03470831360797007,
        -0.003647990759126966,
        0.10446478735209537,
        0.9939160595006973
      ],
      "scale": [
        0.16,
        0.14,
        0.2
      ]
    }
  ],
  "meshes": [
    {
      "name": "GroundBaseMesh",
      "primitives": [
        {
          "attributes": {
            "POSITION": 9,
            "NORMAL": 10
          },
          "indices": 11,
          "material": 0
        }
      ]
    },
    {
      "name": "GroundGlowMesh",
      "primitives": [
        {
          "attributes": {
            "POSITION": 9,
            "NORMAL": 10
          },
          "indices": 11,
          "material": 1
        }
      ]
    },
    {
      "name": "BootShellMesh",
      "primitives": [
        {
          "attributes": {
            "POSITION": 0,
            "NORMAL": 1
          },
          "indices": 2,
          "material": 2
        }
      ]
    },
    {
      "name": "BootGuardMesh",
      "primitives": [
        {
          "attributes": {
            "POSITION": 6,
            "NORMAL": 7
          },
          "indices": 8,
          "material": 3
        }
      ]
    },
    {
      "name": "LowerLegMesh",
      "primitives": [
        {
          "attributes": {
            "POSITION": 3,
            "NORMAL": 4
          },
          "indices": 5,
          "material": 4
        }
      ]
    },
    {
      "name": "UpperLegMesh",
      "primitives": [
        {
          "attributes": {
            "POSITION": 6,
            "NORMAL": 7
          },
          "indices": 8,
          "material": 4
        }
      ]
    },
    {
      "name": "PelvisMesh",
      "primitives": [
        {
          "attributes": {
            "POSITION": 6,
            "NORMAL": 7
          },
          "indices": 8,
          "material": 5
        }
      ]
    },
    {
      "name": "BeltMesh",
      "primitives": [
        {
          "attributes": {
            "POSITION": 3,
            "NORMAL": 4
          },
          "indices": 5,
          "material": 6
        }
      ]
    },
    {
      "name": "LowerTorsoMesh",
      "primitives": [
        {
          "attributes": {
            "POSITION": 6,
            "NORMAL": 7
          },
          "indices": 8,
          "material": 5
        }
      ]
    },
    {
      "name": "UpperTorsoMesh",
      "primitives": [
        {
          "attributes": {
            "POSITION": 0,
            "NORMAL": 1
          },
          "indices": 2,
          "material": 5
        }
      ]
    },
    {
      "name": "ChestTrimMesh",
      "primitives": [
        {
          "attributes": {
            "POSITION": 3,
            "NORMAL": 4
          },
          "indices": 5,
          "material": 6
        }
      ]
    },
    {
      "name": "CollarMesh",
      "primitives": [
        {
          "attributes": {
            "POSITION": 3,
            "NORMAL": 4
          },
          "indices": 5,
          "material": 6
        }
      ]
    },
    {
      "name": "NeckMesh",
      "primitives": [
        {
          "attributes": {
            "POSITION": 3,
            "NORMAL": 4
          },
          "indices": 5,
          "material": 7
        }
      ]
    },
    {
      "name": "HeadMesh",
      "primitives": [
        {
          "attributes": {
            "POSITION": 0,
            "NORMAL": 1
          },
          "indices": 2,
          "material": 7
        }
      ]
    },
    {
      "name": "HairCrownMesh",
      "primitives": [
        {
          "attributes": {
            "POSITION": 0,
            "NORMAL": 1
          },
          "indices": 2,
          "material": 8
        }
      ]
    },
    {
      "name": "HairBackMesh",
      "primitives": [
        {
          "attributes": {
            "POSITION": 0,
            "NORMAL": 1
          },
          "indices": 2,
          "material": 8
        }
      ]
    },
    {
      "name": "HairSideMesh",
      "primitives": [
        {
          "attributes": {
            "POSITION": 0,
            "NORMAL": 1
          },
          "indices": 2,
          "material": 8
        }
      ]
    },
    {
      "name": "CapeMesh",
      "primitives": [
        {
          "attributes": {
            "POSITION": 12,
            "NORMAL": 13
          },
          "indices": 14,
          "material": 9
        }
      ]
    },
    {
      "name": "ShoulderMesh",
      "primitives": [
        {
          "attributes": {
            "POSITION": 0,
            "NORMAL": 1
          },
          "indices": 2,
          "material": 6
        }
      ]
    },
    {
      "name": "UpperArmMesh",
      "primitives": [
        {
          "attributes": {
            "POSITION": 3,
            "NORMAL": 4
          },
          "indices": 5,
          "material": 7
        }
      ]
    },
    {
      "name": "ForearmMesh",
      "primitives": [
        {
          "attributes": {
            "POSITION": 3,
            "NORMAL": 4
          },
          "indices": 5,
          "material": 10
        }
      ]
    },
    {
      "name": "GloveMesh",
      "primitives": [
        {
          "attributes": {
            "POSITION": 0,
            "NORMAL": 1
          },
          "indices": 2,
          "material": 2
        }
      ]
    },
    {
      "name": "HandMesh",
      "primitives": [
        {
          "attributes": {
            "POSITION": 0,
            "NORMAL": 1
          },
          "indices": 2,
          "material": 7
        }
      ]
    }
  ],
  "materials": [
    {
      "name": "GroundBase",
      "pbrMetallicRoughness": {
        "baseColorFactor": [
          0.92,
          0.88,
          0.82,
          1.0
        ],
        "metallicFactor": 0.0,
        "roughnessFactor": 0.96
      }
    },
    {
      "name": "GroundGlow",
      "pbrMetallicRoughness": {
        "baseColorFactor": [
          0.97,
          0.84,
          0.64,
          0.85
        ],
        "metallicFactor": 0.0,
        "roughnessFactor": 0.9
      }
    },
    {
      "name": "Leather",
      "pbrMetallicRoughness": {
        "baseColorFactor": [
          0.36,
          0.24,
          0.18,
          1.0
        ],
        "metallicFactor": 0.0,
        "roughnessFactor": 0.6
      }
    },
    {
      "name": "Copper",
      "pbrMetallicRoughness": {
        "baseColorFactor": [
          0.84,
          0.49,
          0.27,
          1.0
        ],
        "metallicFactor": 0.1,
        "roughnessFactor": 0.4
      }
    },
    {
      "name": "MidnightCloth",
      "pbrMetallicRoughness": {
        "baseColorFactor": [
          0.21,
          0.35,
          0.56,
          1.0
        ],
        "metallicFactor": 0.0,
        "roughnessFactor": 0.72
      }
    },
    {
      "name": "Tunic",
      "pbrMetallicRoughness": {
        "baseColorFactor": [
          0.32,
          0.64,
          0.62,
          1.0
        ],
        "metallicFactor": 0.0,
        "roughnessFactor": 0.5
      }
    },
    {
      "name": "GildedTrim",
      "pbrMetallicRoughness": {
        "baseColorFactor": [
          0.95,
          0.82,
          0.48,
          1.0
        ],
        "metallicFactor": 0.15,
        "roughnessFactor": 0.35
      }
    },
    {
      "name": "Skin",
      "pbrMetallicRoughness": {
        "baseColorFactor": [
          0.98,
          0.82,
          0.69,
          1.0
        ],
        "metallicFactor": 0.0,
        "roughnessFactor": 0.55
      }
    },
    {
      "name": "Hair",
      "pbrMetallicRoughness": {
        "baseColorFactor": [
          0.21,
          0.16,
          0.12,
          1.0
        ],
        "metallicFactor": 0.0,
        "roughnessFactor": 0.72
      }
    },
    {
      "name": "Cape",
      "doubleSided": true,
      "pbrMetallicRoughness": {
        "baseColorFactor": [
          0.52,
          0.17,
          0.3,
          1.0
        ],
        "metallicFactor": 0.0,
        "roughnessFactor": 0.82
      }
    },
    {
      "name": "Bracer",
      "pbrMetallicRoughness": {
        "baseColorFactor": [
          0.26,
          0.42,
          0.6,
          1.0
        ],
        "metallicFactor": 0.05,
        "roughnessFactor": 0.48
      }
    }
  ],
  "bufferViews": [
    {
      "buffer": 0,
      "byteOffset": 0,
      "byteLength": 15996,
      "target": 34962
    },
    {
      "buffer": 0,
      "byteOffset": 15996,
      "byteLength": 15996,
      "target": 34962
    },
    {
      "buffer": 0,
      "byteOffset": 31992,
      "byteLength": 15120,
      "target": 34963
    },
    {
      "buffer": 0,
      "byteOffset": 47112,
      "byteLength": 2064,
      "target": 34962
    },
    {
      "buffer": 0,
      "byteOffset": 49176,
      "byteLength": 2064,
      "target": 34962
    },
    {
      "buffer": 0,
      "byteOffset": 51240,
      "byteLength": 1008,
      "target": 34963
    },
    {
      "buffer": 0,
      "byteOffset": 52248,
      "byteLength": 2064,
      "target": 34962
    },
    {
      "buffer": 0,
      "byteOffset": 54312,
      "byteLength": 2064,
      "target": 34962
    },
    {
      "buffer": 0,
      "byteOffset": 56376,
      "byteLength": 1008,
      "target": 34963
    },
    {
      "buffer": 0,
      "byteOffset": 57384,
      "byteLength": 780,
      "target": 34962
    },
    {
      "buffer": 0,
      "byteOffset": 58164,
      "byteLength": 780,
      "target": 34962
    },
    {
      "buffer": 0,
      "byteOffset": 58944,
      "byteLength": 384,
      "target": 34963
    },
    {
      "buffer": 0,
      "byteOffset": 59328,
      "byteLength": 48,
      "target": 34962
    },
    {
      "buffer": 0,
      "byteOffset": 59376,
      "byteLength": 48,
      "target": 34962
    },
    {
      "buffer": 0,
      "byteOffset": 59424,
      "byteLength": 12,
      "target": 34963
    }
  ],
  "accessors": [
    {
      "bufferView": 0,
      "componentType": 5126,
      "count": 1333,
      "type": "VEC3",
      "min": [
        -0.5,
        -0.5,
        -0.4986018985905901
      ],
      "max": [
        0.5,
        0.5,
        0.49860189859059006
      ]
    },
    {
      "bufferView": 1,
      "componentType": 5126,
      "count": 1333,
      "type": "VEC3"
    },
    {
      "bufferView": 2,
      "componentType": 5123,
      "count": 7560,
      "type": "SCALAR",
      "min": [
        0
      ],
      "max": [
        1332
      ]
    },
    {
      "bufferView": 3,
      "componentType": 5126,
      "count": 172,
      "type": "VEC3",
      "min": [
        -0.5,
        -0.5,
        -0.49860189859059006
      ],
      "max": [
        0.5,
        0.5,
        0.49860189859059006
      ]
    },
    {
      "bufferView": 4,
      "componentType": 5126,
      "count": 172,
      "type": "VEC3"
    },
    {
      "bufferView": 5,
      "componentType": 5123,
      "count": 504,
      "type": "SCALAR",
      "min": [
        0
      ],
      "max": [
        171
      ]
    },
    {
      "bufferView": 6,
      "componentType": 5126,
      "count": 172,
      "type": "VEC3",
      "min": [
        -0.62,
        -0.5,
        -0.6182663542523317
      ],
      "max": [
        0.62,
        0.5,
        0.6182663542523317
      ]
    },
    {
      "bufferView": 7,
      "componentType": 5126,
      "count": 172,
      "type": "VEC3"
    },
    {
      "bufferView": 8,
      "componentType": 5123,
      "count": 504,
      "type": "SCALAR",
      "min": [
        0
      ],
      "max": [
        171
      ]
    },
    {
      "bufferView": 9,
      "componentType": 5126,
      "count": 65,
      "type": "VEC3",
      "min": [
        -1.0,
        0.0,
        -1.0
      ],
      "max": [
        1.0,
        0.0,
        1.0
      ]
    },
    {
      "bufferView": 10,
      "componentType": 5126,
      "count": 65,
      "type": "VEC3"
    },
    {
      "bufferView": 11,
      "componentType": 5123,
      "count": 192,
      "type": "SCALAR",
      "min": [
        0
      ],
      "max": [
        64
      ]
    },
    {
      "bufferView": 12,
      "componentType": 5126,
      "count": 4,
      "type": "VEC3",
      "min": [
        -0.5,
        -0.5,
        0.0
      ],
      "max": [
        0.5,
        0.5,
        0.0
      ]
    },
    {
      "bufferView": 13,
      "componentType": 5126,
      "count": 4,
      "type": "VEC3"
    },
    {
      "bufferView": 14,
      "componentType": 5123,
      "count": 6,
      "type": "SCALAR",
      "min": [
        0
      ],
      "max": [
        3
      ]
    }
  ],
  "buffers": [
    {
      "byteLength": 59436,
      "uri": "data:application/octet-stream;base64,"
    }
  ]
}