{
  "asset": {
    "version": "2.0",
    "generator": "Codex Vitae Placeholder"
  },
  "scene": 0,
  "scenes": [
    {
      "nodes": [0]
    }
  ],
  "nodes": [
    {
      "mesh": 0,
      "name": "PlaceholderNode"
    }
  ],
  "meshes": [
    {
      "name": "PlaceholderMesh",
      "primitives": [
        {
          "attributes": {
            "POSITION": 0
          },
          "indices": 1,
          "material": 0,
          "mode": 4
        }
      ]
    }
  ],
  "materials": [
    {
      "name": "PlaceholderMaterial",
      "pbrMetallicRoughness": {
        "baseColorFactor": [
          0.47,
          0.74,
          0.93,
          1
        ],
        "metallicFactor": 0,
        "roughnessFactor": 0.68
      },
      "emissiveFactor": [
        0.02,
        0.05,
        0.07
      ]
    }
  ],
  "buffers": [
    {
      "byteLength": 44,
      "uri": "data:application/octet-stream;base64,"
    }
  ],
  "bufferViews": [
    {
      "buffer": 0,
      "byteOffset": 0,
      "byteLength": 36,
      "target": 34962
    },
    {
      "buffer": 0,
      "byteOffset": 36,
      "byteLength": 6,
      "target": 34963
    }
  ],
  "accessors": [
    {
      "bufferView": 0,
      "componentType": 5126,
      "count": 3,
      "type": "VEC3",
      "max": [
        1,
        1,
        0
      ],
      "min": [
        -1,
        -1,
        0
      ]
    },
    {
      "bufferView": 1,
      "componentType": 5123,
      "count": 3,
      "type": "SCALAR"
    }
  ]
}
